#!OML:ASF E:\acrobat2\Project_11_07_03\Capture day 1\Session 1\Acrobat.ASF
:FULLY-SPECIFIED
:DEGREES
175
root 10.9546 18.0225 -30.1197 26.0345 -87.0308 -23.2081
lowerback -5.434 0.201445 1.49313
upperback -4.38475 0.102301 -0.48993
thorax -1.46045 -0.0359917 -1.33503
lowerneck -1.61231 -0.636466 -1.20973
upperneck 3.26673 -0.970521 3.93636
head 1.31443 -0.446786 1.41669
rclavicle -8.69683e-016 5.1684e-015
rhumerus -11.7254 -30.0473 -9.75692
rradius 19.4996
rwrist 18.4432
rhand -11.865 -46.7491
rfingers 7.12502
rthumb 14.1871 -76.2446
lclavicle -8.69683e-016 5.1684e-015
lhumerus -0.220491 6.95492 8.37234
lradius 20.1405
lwrist 6.70738
lhand -6.24119 -4.22767
lfingers 7.12502
lthumb 19.6005 24.8043
rfemur 10.0844 15.4031 14.582
rtibia -2.57148
rfoot -26.1945 -31.6388
rtoes -0.960098
lfemur 9.26502 -8.72826 -5.25648
ltibia -3.10908
lfoot -27.7014 8.64755
ltoes 27.4219
176
root 10.9547 18.0217 -30.1197 25.315 -87.0751 -22.4958
lowerback -5.43214 0.197801 1.44649
upperback -4.37915 0.0992943 -0.503463
thorax -1.45579 -0.0364486 -1.3229
lowerneck -1.56659 -0.641072 -1.31504
upperneck 3.22035 -0.975739 4.03177
head 1.29398 -0.450192 1.46517
rclavicle -5.01931e-015 5.36719e-015
rhumerus -11.6866 -30.0537 -9.80219
rradius 19.5016
rwrist 18.4327
rhand -11.8648 -46.7922
rfingers 7.12502
rthumb 14.1873 -76.2877
lclavicle -5.01931e-015 5.36719e-015
lhumerus -0.266702 6.76219 8.3573
lradius 20.1961
lwrist 6.95945
lhand -6.3993 -4.21481
lfingers 7.12502
lthumb 19.4485 24.8326
rfemur 10.0963 15.4809 14.5409
rtibia -2.56757
rfoot -26.4025 -31.5818
rtoes -0.771743
lfemur 9.25377 -8.52243 -5.26156
ltibia -3.0685
lfoot -27.499 8.69143
ltoes 26.818
177
root 10.9548 18.0213 -30.1195 24.9931 -87.1057 -22.1908
lowerback -5.41885 0.183914 1.42017
upperback -4.37358 0.082309 -0.493719
thorax -1.45798 -0.0440595 -1.29881
lowerneck -1.50937 -0.627278 -1.42364
upperneck 3.18523 -0.955667 4.10084
head 1.2741 -0.441372 1.50633
rclavicle -2.98177e-015 2.5842e-015
rhumerus -11.6113 -30.0902 -9.86063
rradius 19.5047
rwrist 18.4384
rhand -11.9423 -46.7525
rfingers 7.12502
rthumb 14.1126 -76.2532
lclavicle -2.98177e-015 2.5842e-015
lhumerus -0.358073 6.62653 8.34971
lradius 20.2455
lwrist 7.16491
lhand -6.53514 -4.24177
lfingers 7.12502
lthumb 19.3179 24.8187
rfemur 10.1191 15.4877 14.5012
rtibia -2.58044
rfoot -26.7863 -31.3701
rtoes 0.578817
lfemur 9.28745 -8.52803 -5.30265
ltibia -3.07914
lfoot -27.4347 8.81587
ltoes 26.637
178
root 10.9554 18.0214 -30.12 26.5469 -87.0819 -23.7439
lowerback -5.42113 0.144421 1.50731
upperback -4.39459 0.0258514 -0.461089
thorax -1.48039 -0.0745964 -1.31642
lowerneck -1.26381 -0.611229 -1.59733
upperneck 3.09573 -0.934147 4.26216
head 1.20588 -0.434242 1.58808
rclavicle 1.73937e-016 -3.18055e-015
rhumerus -11.4862 -30.1324 -9.99999
rradius 19.5156
rwrist 18.5106
rhand -11.959 -46.7189
rfingers 7.12502
rthumb 14.0966 -76.2208
lclavicle 1.73937e-016 -3.18055e-015
lhumerus -0.518937 6.42815 8.25059
lradius 20.2865
lwrist 7.28863
lhand -6.61257 -4.19098
lfingers 7.12502
lthumb 19.2434 24.8769
rfemur 10.1392 15.6706 14.6391
rtibia -2.60091
rfoot -27.0544 -31.3727
rtoes 1.66748
lfemur 9.27972 -8.49157 -5.18817
ltibia -3.0725
lfoot -27.3798 8.7993
ltoes 26.901
179
root 10.9559 18.0213 -30.1209 27.4883 -87.0804 -24.6921
lowerback -5.42703 0.107149 1.61733
upperback -4.39993 -0.0285631 -0.487097
thorax -1.48483 -0.105042 -1.40707
lowerneck -1.42653 -0.480976 -1.22783
upperneck 3.16666 -0.760713 3.97151
head 1.24513 -0.344652 1.43355
rclavicle 1.3418e-015 3.37934e-015
rhumerus -11.3778 -30.2999 -10.181
rradius 19.4989
rwrist 18.6969
rhand -11.8768 -46.6817
rfingers 7.12502
rthumb 14.1757 -76.178
lclavicle 1.3418e-015 3.37934e-015
lhumerus -0.62969 6.25133 8.08113
lradius 20.3121
lwrist 7.29659
lhand -6.60395 -4.14147
lfingers 7.12502
lthumb 19.2517 24.9256
rfemur 10.167 15.8464 14.733
rtibia -2.62524
rfoot -27.0814 -31.4659
rtoes 1.61739
lfemur 9.32033 -8.64794 -5.18066
ltibia -3.11913
lfoot -27.6029 8.74111
ltoes 27.3
180
root 10.9566 18.0206 -30.1222 27.1134 -87.1153 -24.3279
lowerback -5.42166 0.0985355 1.68102
upperback -4.38565 -0.0424819 -0.558649
thorax -1.47393 -0.114137 -1.51695
lowerneck -1.43375 -0.47215 -1.14126
upperneck 3.32211 -0.753202 3.86848
head 1.29365 -0.340106 1.38662
rclavicle 8.94531e-016 1.39149e-015
rhumerus -11.3476 -30.4188 -10.3041
rradius 19.4599
rwrist 18.7691
rhand -11.8942 -46.6755
rfingers 7.12502
rthumb 14.159 -76.173
lclavicle 8.94531e-016 1.39149e-015
lhumerus -0.640761 5.97346 7.91826
lradius 20.3485
lwrist 7.52226
lhand -6.62678 -4.13106
lfingers 7.12502
lthumb 19.2297 24.9382
rfemur 10.144 15.636 14.6357
rtibia -2.61901
rfoot -26.8128 -31.4111
rtoes 1.12216
lfemur 9.41101 -9.03487 -5.34049
ltibia -3.21417
lfoot -28.0196 8.85976
ltoes 27.4004
181
root 10.9571 18.0201 -30.1237 27.9574 -87.1072 -25.164
lowerback -5.43069 0.107261 1.77932
upperback -4.38816 -0.0351914 -0.593966
thorax -1.4716 -0.113396 -1.60818
lowerneck -1.7791 -0.464318 -0.836375
upperneck 3.73643 -0.753202 3.55698
head 1.47995 -0.334091 1.23773
rclavicle 2.73329e-015 7.35503e-015
rhumerus -11.3734 -30.2849 -10.3607
rradius 19.4243
rwrist 18.6207
rhand -11.9765 -46.7264
rfingers 7.12502
rthumb 14.0797 -76.2294
lclavicle 2.73329e-015 7.35503e-015
lhumerus -0.584142 5.52543 7.79114
lradius 20.3528
lwrist 7.95247
lhand -6.67095 -4.06982
lfingers 7.12502
lthumb 19.1873 25.0037
rfemur 10.0968 15.5181 14.6621
rtibia -2.57663
rfoot -26.6883 -31.3793
rtoes 1.24154
lfemur 9.39952 -8.99509 -5.27236
ltibia -3.20195
lfoot -27.9744 9.0379
ltoes 26.7055
182
root 10.9572 18.0199 -30.1241 29.3988 -87.106 -26.5999
lowerback -5.43614 0.118747 1.88251
upperback -4.39388 -0.0241455 -0.592495
thorax -1.47433 -0.110472 -1.66414
lowerneck -1.27988 -0.543328 -1.37816
upperneck 3.24793 -0.854652 4.23003
head 1.25204 -0.391605 1.54132
rclavicle 1.14301e-015 -2.78299e-015
rhumerus -11.3772 -30.1308 -10.3945
rradius 19.4166
rwrist 18.4659
rhand -12.0071 -46.7262
rfingers 7.12502
rthumb 14.0502 -76.2313
lclavicle 1.14301e-015 -2.78299e-015
lhumerus -0.576481 5.14 7.71546
lradius 20.3386
lwrist 8.26933
lhand -6.72974 -4.02224
lfingers 7.12502
lthumb 19.1307 25.0569
rfemur 10.0359 15.3755 14.6971
rtibia -2.52455
rfoot -26.385 -31.3295
rtoes 0.304453
lfemur 9.35741 -8.76324 -5.12182
ltibia -3.14635
lfoot -27.7216 9.15688
ltoes 25.9651
183
root 10.9573 18.019 -30.1234 30.1446 -87.1674 -27.3641
lowerback -5.42426 0.101012 1.91167
upperback -4.38479 -0.0483744 -0.591345
thorax -1.47269 -0.123042 -1.6803
lowerneck -1.41177 -0.608407 -1.20045
upperneck 3.70661 -0.947777 3.84865
head 1.41748 -0.436214 1.38956
rclavicle 6.5102e-015 6.95746e-015
rhumerus -11.2573 -30.2141 -10.5418
rradius 19.4291
rwrist 18.5287
rhand -12.0239 -46.6898
rfingers 7.12502
rthumb 14.034 -76.196
lclavicle 6.5102e-015 6.95746e-015
lhumerus -0.70263 5.14621 7.63385
lradius 20.3495
lwrist 8.23403
lhand -6.76655 -4.07406
lfingers 7.12502
lthumb 19.0953 25.0086
rfemur 9.99376 15.1362 14.6155
rtibia -2.49831
rfoot -25.9473 -31.1945
rtoes -0.885828
lfemur 9.44744 -8.9903 -5.20275
ltibia -3.21916
lfoot -27.9653 9.15172
ltoes 26.7447
184
root 10.9574 18.0183 -30.1232 30.1494 -87.2473 -27.3876
lowerback -5.42251 0.101432 1.87208
upperback -4.36445 -0.0457472 -0.596347
thorax -1.4524 -0.120188 -1.66314
lowerneck -1.30111 -0.601769 -1.28195
upperneck 3.30342 -0.933449 4.12293
head 1.27366 -0.430586 1.48933
rclavicle -1.98785e-015 3.77691e-015
rhumerus -11.2051 -30.2928 -10.6138
rradius 19.4598
rwrist 18.5681
rhand -12.0155 -46.6849
rfingers 7.12502
rthumb 14.0421 -76.1906
lclavicle -1.98785e-015 3.77691e-015
lhumerus -0.766216 5.3187 7.62339
lradius 20.3514
lwrist 8.06341
lhand -6.72278 -4.08885
lfingers 7.12502
lthumb 19.1374 24.9896
rfemur 10.022 15.271 14.5766
rtibia -2.52977
rfoot -26.1195 -31.1268
rtoes -0.277285
lfemur 9.56799 -9.39005 -5.39452
ltibia -3.3111
lfoot -28.4768 9.07803
ltoes 27.9145
185
root 10.9572 18.0173 -30.1237 30.2884 -87.3273 -27.5287
lowerback -5.43133 0.151841 1.84292
upperback -4.34769 0.0228155 -0.593124
thorax -1.42717 -0.0844999 -1.6407
lowerneck -1.32109 -0.658718 -1.14869
upperneck 3.4748 -1.00338 3.73406
head 1.32786 -0.467258 1.34183
rclavicle 4.17448e-015 -9.93923e-016
rhumerus -11.2968 -30.3324 -10.5184
rradius 19.495
rwrist 18.5659
rhand -11.9757 -46.6701
rfingers 7.12502
rthumb 14.0804 -76.1731
lclavicle 4.17448e-015 -9.93923e-016
lhumerus -0.729566 5.14504 7.69711
lradius 20.3646
lwrist 8.23115
lhand -6.79969 -4.00943
lfingers 7.12502
lthumb 19.0635 25.0763
rfemur 10.0011 15.2921 14.503
rtibia -2.53194
rfoot -26.2273 -31.0302
rtoes -0.144908
lfemur 9.65557 -9.78542 -5.57717
ltibia -3.36889
lfoot -28.9783 9.10804
ltoes 28.4946
186
root 10.9569 18.0159 -30.1245 30.8345 -87.4178 -28.0753
lowerback -5.44126 0.186696 1.81799
upperback -4.33879 0.0702837 -0.575629
thorax -1.4104 -0.0595791 -1.60677
lowerneck -1.35645 -0.638759 -1.1756
upperneck 3.43773 -0.973113 3.71018
head 1.32143 -0.452483 1.33922
rclavicle 1.14301e-015 -3.57812e-015
rhumerus -11.3026 -30.4908 -10.49
rradius 19.4909
rwrist 18.663
rhand -11.9921 -46.6555
rfingers 7.12502
rthumb 14.0646 -76.1596
lclavicle 1.14301e-015 -3.57812e-015
lhumerus -0.746175 4.907 7.73555
lradius 20.3939
lwrist 8.38591
lhand -6.96397 -3.88669
lfingers 7.12502
lthumb 18.9055 25.2146
rfemur 9.9355 15.1563 14.4126
rtibia -2.48735
rfoot -26.0581 -30.9101
rtoes -0.617516
lfemur 9.73354 -10.1778 -5.74086
ltibia -3.4143
lfoot -29.5091 9.03251
ltoes 29.6729
187
root 10.9573 18.0146 -30.1257 30.3596 -87.5263 -27.6136
lowerback -5.43076 0.203074 1.73554
upperback -4.32859 0.0957645 -0.574854
thorax -1.40457 -0.044612 -1.55865
lowerneck -1.36095 -0.639046 -1.22862
upperneck 3.498 -0.975122 3.73531
head 1.34213 -0.453368 1.35671
rclavicle 1.04362e-015 2.78299e-015
rhumerus -11.2659 -30.5736 -10.5064
rradius 19.4844
rwrist 18.6262
rhand -12.0575 -46.6921
rfingers 7.12502
rthumb 14.0016 -76.2006
lclavicle 1.04362e-015 2.78299e-015
lhumerus -0.751799 4.98312 7.76675
lradius 20.3945
lwrist 8.17962
lhand -6.98994 -3.79559
lfingers 7.12502
lthumb 18.8805 25.3081
rfemur 9.92769 15.2055 14.3329
rtibia -2.47653
rfoot -25.984 -30.8285
rtoes -0.147116
lfemur 9.78695 -10.3343 -5.88828
ltibia -3.41634
lfoot -29.8014 8.9447
ltoes 30.3845
188
root 10.9584 18.0144 -30.1283 30.5391 -87.6046 -27.8131
lowerback -5.40575 0.23579 1.69826
upperback -4.29492 0.142688 -0.543171
thorax -1.38185 -0.0187191 -1.50323
lowerneck -1.41483 -0.663397 -1.40541
upperneck 3.54639 -1.00599 3.79563
head 1.37004 -0.469079 1.40652
rclavicle -1.2598e-014 4.17448e-015
rhumerus -11.2717 -30.5956 -10.4304
rradius 19.5348
rwrist 18.5032
rhand -12.0881 -46.7185
rfingers 7.12502
rthumb 13.9721 -76.229
lclavicle -1.2598e-014 4.17448e-015
lhumerus -0.701767 5.15907 7.88372
lradius 20.3625
lwrist 8.06367
lhand -6.99738 -3.85098
lfingers 7.12502
lthumb 18.8733 25.2534
rfemur 9.89985 15.0076 14.2564
rtibia -2.45636
rfoot -25.4068 -30.7593
rtoes -0.716725
lfemur 9.85027 -10.2708 -5.91622
ltibia -3.45038
lfoot -29.7618 9.02993
ltoes 29.8162
189
root 10.9594 18.0151 -30.1316 32.6788 -87.6352 -29.968
lowerback -5.38788 0.264491 1.76777
upperback -4.25841 0.18023 -0.488212
thorax -1.35267 0.000469285 -1.48419
lowerneck -1.49328 -0.621336 -1.48307
upperneck 3.49905 -0.94382 3.77917
head 1.36743 -0.438347 1.41566
rclavicle -3.90115e-015 7.95139e-016
rhumerus -11.2601 -30.5564 -10.3743
rradius 19.5815
rwrist 18.3822
rhand -12.0783 -46.711
rfingers 7.12502
rthumb 13.9816 -76.2209
lclavicle -3.90115e-015 7.95139e-016
lhumerus -0.688574 5.27286 7.9662
lradius 20.3473
lwrist 8.06
lhand -7.10521 -3.90348
lfingers 7.12502
lthumb 18.7696 25.211
rfemur 9.86428 14.8524 14.3141
rtibia -2.42489
rfoot -25.023 -30.7797
rtoes -1.94289
lfemur 9.90597 -10.2108 -5.82773
ltibia -3.48692
lfoot -29.756 9.08922
ltoes 29.1164
